<?xml version="1.0" standalone="no"?>
<!DOCTYPE svg PUBLIC "-//W3C//DTD SVG 20010904//EN"
 "http://www.w3.org/TR/2001/REC-SVG-20010904/DTD/svg10.dtd">
<svg version="1.0" xmlns="http://www.w3.org/2000/svg"
 width="300.000000pt" height="70.000000pt" viewBox="0 0 300.000000 70.000000"
 preserveAspectRatio="xMidYMid meet">

<g transform="translate(0.000000,70.000000) scale(0.100000,-0.100000)"
fill="#000000" stroke="none">
<path d="M1953 661 c-66 -16 -73 -17 -74 -2 0 13 -2 12 -8 -2 -4 -11 -39 -33
-81 -51 -84 -35 -144 -66 -138 -71 1 -2 39 14 83 35 110 52 128 57 121 33 -3
-10 -19 -78 -37 -151 l-31 -133 -58 -29 c-32 -16 -61 -34 -65 -40 -9 -15 4
-12 33 8 30 20 82 44 82 38 0 -3 -11 -56 -25 -120 -14 -64 -25 -126 -25 -138
0 -21 1 -21 18 -5 11 12 13 20 6 25 -8 5 -3 43 15 127 l26 120 55 12 55 12
-53 -4 c-40 -3 -53 -1 -49 8 2 7 19 74 37 150 22 94 37 140 48 146 29 16 182
45 189 36 5 -4 3 -10 -3 -12 -20 -7 -49 -32 -38 -33 18 0 65 41 59 51 -9 13
-61 10 -142 -10z"/>
<path d="M695 638 c-24 -28 -97 -172 -131 -257 -7 -17 -10 6 -9 84 0 117 -7
133 -45 93 -30 -31 -110 -193 -151 -303 -18 -50 -37 -94 -41 -100 -6 -6 -7 -4
-4 5 22 64 115 468 110 482 -23 74 -174 -90 -174 -189 0 -45 25 -73 65 -73 14
0 10 5 -15 18 -44 22 -51 62 -20 124 25 48 97 128 117 128 23 0 14 -54 -52
-322 -74 -296 -82 -375 -21 -203 86 244 179 435 212 435 19 0 18 -87 -1 -205
-22 -132 -18 -140 19 -40 58 160 116 280 157 323 50 54 47 -4 -17 -322 -35
-175 -41 -236 -24 -236 6 0 8 10 4 23 -3 13 13 118 36 233 47 235 55 326 29
332 -9 1 -29 -12 -44 -30z"/>
<path d="M2351 588 c-11 -24 -32 -88 -47 -143 -25 -90 -32 -105 -78 -155 -28
-30 -54 -56 -57 -58 -12 -5 -49 64 -49 90 0 28 14 44 45 50 11 2 16 6 10 10
-21 12 -53 -12 -83 -65 -29 -51 -56 -75 -66 -59 -2 4 -7 25 -12 46 l-7 40 -29
-33 c-37 -41 -47 -34 -21 16 15 27 27 38 42 37 15 0 19 2 11 10 -24 24 -91
-62 -76 -99 6 -17 9 -16 35 9 l28 27 9 -33 c13 -44 36 -46 72 -7 l30 32 21
-41 c26 -52 26 -53 -4 -98 -27 -40 -33 -74 -12 -74 24 0 48 37 54 80 5 32 17
54 54 93 l47 52 -19 -79 c-10 -44 -17 -82 -15 -84 2 -2 21 28 41 67 39 75 62
89 67 44 4 -40 32 -40 68 -1 l30 32 0 -27 c0 -22 5 -27 23 -27 13 0 34 11 47
25 24 25 24 25 32 5 7 -19 37 -27 52 -13 3 4 22 12 41 19 l35 12 -6 -34 c-9
-48 1 -42 31 16 14 28 29 50 34 50 5 0 15 -16 21 -35 14 -43 40 -46 69 -9 32
41 25 53 -8 14 -30 -36 -45 -35 -53 4 -1 10 -11 24 -20 30 -14 8 -21 6 -32 -9
-18 -23 -20 -17 -6 19 6 17 6 26 0 26 -6 0 -10 -7 -10 -15 0 -21 -36 -55 -59
-55 -14 0 -21 8 -23 27 -5 41 -22 38 -78 -17 -69 -65 -84 -66 -76 -2 6 47 6
47 -11 22 -58 -81 -93 -98 -93 -45 0 41 -21 41 -56 0 l-33 -38 28 104 c15 57
45 136 65 174 35 67 46 115 27 115 -5 0 -18 -19 -30 -42z m14 -25 c-18 -42
-25 -52 -25 -34 0 14 28 71 35 71 3 0 -2 -17 -10 -37z m235 -244 c0 -11 -4
-17 -10 -14 -5 3 -10 13 -10 21 0 8 5 14 10 14 6 0 10 -9 10 -21z m-10 -46 c0
-18 -29 -16 -36 2 -4 8 -3 22 0 32 6 14 8 14 21 -3 8 -10 15 -25 15 -31z
m-439 -125 c-9 -25 -41 -57 -41 -42 0 14 41 77 46 72 2 -3 0 -16 -5 -30z"/>
<path d="M890 438 c-11 -12 -20 -35 -20 -51 0 -20 -11 -40 -35 -64 -43 -43
-61 -39 -58 13 2 30 0 34 -7 19 -13 -29 -12 -61 3 -73 16 -13 67 17 91 53 9
14 22 22 30 19 8 -3 24 0 37 6 20 11 21 10 15 -6 -31 -81 -38 -154 -14 -154
15 0 65 59 90 106 17 33 29 43 53 47 16 3 31 4 32 3 1 -1 -4 -26 -12 -56 -19
-70 -19 -100 -1 -100 13 0 62 49 86 87 8 13 13 14 16 6 7 -16 28 -17 52 -3 9
5 28 14 42 20 14 5 32 14 40 19 14 8 80 31 80 28 0 -1 -7 -24 -15 -51 -18 -58
-20 -116 -4 -116 17 0 61 52 92 108 38 70 27 66 -17 -6 -19 -32 -44 -66 -56
-77 -20 -18 -20 -18 -20 8 0 14 8 52 19 86 10 33 16 62 14 65 -3 3 -19 -2 -36
-10 -28 -15 -30 -15 -22 2 25 60 28 74 22 80 -15 15 -57 -39 -57 -72 0 -23 -6
-37 -19 -44 -35 -18 -51 -12 -51 20 0 53 -39 36 -80 -34 -38 -67 -76 -113 -85
-104 -7 7 14 108 31 153 8 19 -3 19 -48 0 -17 -7 -17 -4 1 36 11 24 18 46 15
51 -15 24 -71 -49 -60 -79 6 -14 -71 -144 -93 -157 -16 -10 -14 41 4 100 22
72 20 77 -15 59 -35 -18 -35 -18 -15 28 25 61 14 77 -25 35z m14 -30 c-10 -18
-19 -28 -21 -21 -5 15 15 53 28 53 5 0 2 -15 -7 -32z m160 -10 c-10 -18 -19
-27 -22 -20 -4 14 26 67 35 59 2 -3 -3 -20 -13 -39z m300 0 c-10 -18 -19 -28
-21 -21 -5 15 15 53 28 53 5 0 2 -15 -7 -32z m-114 -49 c0 -11 -4 -17 -10 -14
-5 3 -10 13 -10 21 0 8 5 14 10 14 6 0 10 -9 10 -21z m-10 -46 c0 -15 -26 -17
-35 -3 -3 6 -3 19 0 31 7 19 7 20 21 2 7 -10 14 -24 14 -30z"/>
</g>
</svg>
