<?xml version="1.0" standalone="no"?>
<!DOCTYPE svg PUBLIC "-//W3C//DTD SVG 20010904//EN"
 "http://www.w3.org/TR/2001/REC-SVG-20010904/DTD/svg10.dtd">
<svg version="1.0" xmlns="http://www.w3.org/2000/svg"
 width="2000.000000pt" height="500.000000pt" viewBox="0 0 2000.000000 500.000000"
 preserveAspectRatio="xMidYMid meet">

<g transform="translate(0.000000,500.000000) scale(0.100000,-0.100000)"
fill="#000000" stroke="none">
<path d="M13495 4844 c-241 -37 -598 -125 -869 -214 -99 -33 -182 -57 -184
-55 -2 2 1 33 8 68 15 74 11 93 -25 109 -42 19 -61 -10 -83 -125 -10 -53 -21
-99 -23 -100 -2 -2 -62 -25 -134 -52 -304 -112 -674 -280 -930 -420 -151 -83
-335 -195 -367 -223 -24 -20 -23 -55 1 -76 25 -23 47 -16 136 44 242 162 713
393 1132 555 67 26 126 45 131 43 5 -1 -46 -255 -113 -563 -68 -308 -168 -771
-224 -1029 -56 -259 -103 -470 -104 -471 -1 -1 -42 -16 -92 -34 -211 -78 -444
-205 -639 -350 -109 -80 -130 -109 -101 -141 28 -31 56 -24 121 27 95 74 289
199 393 252 118 59 279 126 287 118 3 -3 -21 -135 -54 -294 -181 -862 -272
-1401 -256 -1512 13 -86 70 -106 124 -44 29 33 76 123 95 182 16 50 -59 83
-89 39 -16 -22 -16 -22 -16 10 0 57 77 491 165 926 122 606 151 737 166 747
17 10 200 53 319 75 47 8 143 18 213 21 136 6 157 14 157 56 0 48 -12 52 -127
49 -126 -3 -274 -23 -427 -57 -60 -14 -112 -23 -115 -20 -5 6 0 29 139 665 60
273 152 698 205 945 53 247 98 451 99 453 2 1 84 30 182 63 413 139 821 232
1080 246 95 5 123 3 129 -7 12 -20 -59 -78 -202 -162 -118 -70 -123 -74 -123
-106 0 -25 6 -35 24 -43 21 -10 37 -5 116 37 109 59 248 160 279 203 12 17 25
46 28 65 5 30 1 40 -24 65 -16 16 -47 34 -69 40 -53 15 -228 12 -339 -5z"/>
<path d="M4635 4577 c-217 -104 -523 -622 -853 -1442 -90 -226 -190 -498 -252
-688 -23 -71 -43 -127 -45 -125 -2 1 7 89 20 193 64 518 84 828 67 1042 -21
255 -59 343 -161 373 -135 38 -314 -182 -579 -710 -271 -540 -607 -1393 -872
-2212 -30 -92 -55 -166 -57 -164 -10 9 342 1600 575 2606 136 586 145 631 145
755 0 146 -39 238 -111 266 -54 21 -131 12 -206 -24 -97 -47 -172 -106 -296
-234 -342 -351 -600 -862 -600 -1188 0 -102 15 -169 55 -252 72 -146 216 -228
443 -254 106 -12 142 0 142 46 0 34 -36 55 -95 55 -134 1 -286 59 -354 136
-63 72 -84 138 -84 269 -1 165 39 298 162 542 167 333 468 687 670 788 88 45
150 27 165 -47 10 -53 7 -180 -8 -263 -8 -44 -67 -305 -131 -580 -266 -1141
-552 -2452 -634 -2900 -54 -296 -64 -376 -51 -409 12 -34 50 -52 77 -37 25 13
67 100 88 183 26 100 129 441 212 698 380 1181 886 2352 1166 2700 54 67 128
130 153 130 19 0 43 -39 61 -102 24 -85 29 -468 8 -708 -29 -347 -70 -668
-144 -1135 -30 -189 -45 -308 -40 -322 4 -12 17 -24 28 -28 44 -14 56 8 111
192 387 1302 878 2412 1196 2702 84 77 122 81 142 12 61 -202 -4 -699 -319
-2435 -139 -769 -182 -1063 -183 -1248 -1 -124 1 -139 20 -165 33 -44 83 -44
128 2 37 37 76 103 76 129 0 9 -11 23 -25 32 -31 20 -69 8 -80 -25 -3 -12 -11
-21 -17 -21 -29 0 38 464 192 1320 38 212 96 538 129 725 204 1151 244 1589
160 1762 -39 80 -108 101 -194 60z"/>
<path d="M15815 4569 c-60 -31 -155 -192 -238 -404 -92 -233 -141 -414 -377
-1407 -25 -104 -48 -178 -54 -178 -7 0 -30 -19 -52 -42 -78 -82 -554 -641
-614 -721 -19 -25 -38 -47 -41 -47 -4 0 -9 10 -13 23 -3 13 -42 81 -86 152
-192 306 -233 397 -234 515 0 91 25 154 87 219 76 79 197 113 283 81 35 -14
63 -4 70 25 14 56 -15 77 -121 91 -60 7 -160 -16 -221 -52 -23 -14 -63 -47
-88 -74 -46 -49 -106 -158 -106 -193 0 -24 -79 -180 -147 -289 -147 -238 -277
-344 -343 -278 -55 55 -93 192 -113 407 -14 152 -24 176 -66 171 -20 -2 -49
-34 -131 -144 -123 -164 -248 -314 -263 -314 -19 0 0 143 32 238 76 228 187
372 285 372 42 0 65 -12 123 -61 37 -32 69 -29 85 7 15 33 -4 67 -62 108 -122
89 -228 71 -345 -56 -73 -80 -133 -189 -179 -328 -47 -143 -64 -261 -45 -319
19 -60 55 -86 106 -77 31 6 54 23 119 91 44 45 114 126 154 179 40 53 75 94
78 92 2 -3 11 -47 18 -98 29 -198 94 -337 176 -377 25 -11 55 -21 69 -21 113
0 272 149 409 383 24 42 46 74 48 72 2 -2 19 -38 38 -81 34 -79 105 -203 205
-357 31 -49 67 -115 79 -147 l22 -59 -109 -163 c-173 -259 -253 -431 -253
-543 0 -46 4 -60 28 -85 87 -96 279 30 388 256 66 137 91 306 70 460 l-8 51
89 110 c160 200 537 636 540 626 2 -6 -8 -59 -22 -119 -46 -192 -143 -635
-169 -772 -32 -162 -32 -193 -5 -218 18 -17 23 -17 46 -4 16 9 34 34 44 60 10
25 43 110 75 190 149 385 368 747 459 762 31 5 53 -53 65 -175 19 -186 69
-274 164 -284 71 -8 142 32 252 141 75 76 189 217 254 315 14 20 15 10 15
-121 0 -132 2 -146 23 -184 90 -156 315 -71 571 218 l69 76 6 -51 c14 -101 73
-193 143 -223 107 -46 250 20 316 146 l19 35 81 1 c97 1 185 31 280 94 33 22
61 39 63 37 2 -1 -12 -63 -30 -137 -45 -181 -70 -324 -62 -355 7 -27 49 -44
73 -29 7 5 47 86 87 179 81 189 128 286 190 390 47 79 115 155 139 155 23 0
60 -70 97 -185 79 -243 168 -338 288 -305 58 15 115 61 185 149 73 94 207 312
207 339 0 10 -9 27 -20 37 -33 30 -61 13 -105 -62 -71 -125 -175 -270 -225
-317 -100 -94 -152 -51 -230 188 -41 128 -70 185 -115 224 -38 34 -88 42 -140
22 -40 -15 -111 -94 -167 -186 -28 -46 -52 -84 -53 -84 -1 0 27 100 62 222 68
234 70 259 24 271 -39 10 -59 -22 -100 -161 -44 -149 -61 -177 -158 -257 -78
-65 -174 -113 -247 -125 -94 -15 -91 -19 -92 138 0 156 -19 224 -75 278 -60
57 -174 27 -211 -56 -7 -18 -20 -30 -31 -30 -11 0 -31 -8 -45 -19 -15 -10 -37
-21 -48 -25 -12 -4 -34 -26 -50 -49 -182 -277 -495 -559 -573 -517 -63 33 -65
182 -7 440 25 113 23 143 -15 155 -35 11 -67 -22 -174 -181 -163 -244 -292
-397 -384 -456 -61 -38 -94 -37 -114 5 -22 47 -25 62 -37 177 -13 120 -38 188
-83 226 -26 22 -38 25 -77 22 -113 -11 -248 -167 -394 -453 -25 -49 -46 -84
-46 -77 0 15 183 810 268 1163 l60 245 111 210 c241 454 391 839 391 1002 0
43 -5 58 -25 77 -25 26 -56 31 -90 14z m-26 -274 c-57 -179 -259 -639 -244
-555 4 19 34 116 66 215 60 180 199 487 206 454 2 -9 -10 -60 -28 -114z m1550
-1702 c18 -39 34 -195 24 -233 l-9 -32 -33 28 c-67 56 -91 166 -51 232 24 39
53 41 69 5z m-184 -160 c26 -89 68 -140 174 -210 2 -1 -2 -16 -9 -33 -15 -37
-81 -97 -115 -106 -57 -14 -116 27 -135 95 -14 51 -12 159 4 204 11 31 56 107
63 107 1 0 9 -26 18 -57z m-2780 -1091 c-29 -142 -117 -294 -209 -360 -53 -38
-66 -40 -66 -7 0 65 90 249 213 432 l72 108 3 -48 c2 -27 -4 -83 -13 -125z"/>
<path d="M5889 3162 c-63 -40 -161 -150 -205 -227 -74 -134 -95 -273 -54 -364
l20 -44 -57 -80 c-133 -185 -324 -371 -438 -427 -105 -52 -131 -22 -129 150 1
72 9 144 27 230 34 158 34 177 2 192 -19 8 -29 8 -48 -5 -19 -12 -28 -35 -45
-114 -37 -167 -44 -230 -40 -346 5 -129 25 -185 81 -214 149 -78 400 105 712
520 l20 27 49 -17 c81 -27 185 2 343 97 l51 31 -19 -63 c-120 -387 -198 -735
-199 -885 0 -120 45 -203 112 -203 96 1 218 108 378 331 93 129 236 369 330
553 l75 147 35 -8 c99 -22 195 2 328 83 39 24 72 41 72 38 0 -4 -22 -81 -50
-173 -141 -473 -191 -788 -141 -897 53 -116 161 -95 308 60 113 119 205 249
350 495 l72 124 19 -44 c52 -122 155 -173 274 -137 50 15 128 84 157 140 l23
43 82 1 c138 2 289 76 422 210 l66 66 49 -12 c83 -20 181 7 307 84 39 25 72
40 72 35 0 -5 -18 -69 -41 -142 -129 -421 -192 -775 -159 -896 16 -59 58 -101
102 -101 148 0 394 300 677 827 118 219 133 256 122 285 -10 26 -33 37 -64 30
-11 -2 -45 -57 -94 -155 -194 -389 -453 -772 -582 -862 -58 -40 -66 -28 -65
93 1 168 64 436 209 897 30 96 32 146 7 168 -35 32 -74 20 -182 -53 -87 -59
-177 -101 -232 -107 l-50 -6 42 74 c23 41 66 124 95 184 100 206 123 319 75
370 -127 135 -470 -296 -420 -529 6 -28 20 -66 30 -84 l20 -33 -42 -45 c-91
-98 -221 -177 -320 -194 -96 -15 -93 -19 -93 133 0 155 -18 226 -69 276 -64
63 -155 47 -205 -36 -16 -25 -34 -42 -45 -43 -11 0 -34 -11 -52 -25 -18 -14
-37 -25 -43 -25 -6 0 -41 -60 -77 -132 -183 -365 -387 -679 -539 -832 -107
-107 -132 -93 -121 71 10 162 76 442 184 783 56 178 62 220 33 249 -36 36 -69
26 -181 -49 -87 -59 -178 -101 -233 -107 l-51 -6 36 64 c179 319 235 503 173
564 -57 57 -156 13 -266 -118 -102 -121 -168 -289 -155 -391 4 -28 16 -71 28
-95 l21 -44 -38 -76 c-111 -225 -295 -532 -411 -687 -117 -155 -225 -254 -244
-224 -50 80 10 400 175 934 30 99 55 185 55 191 0 7 -9 24 -21 39 -31 39 -65
34 -155 -26 -107 -69 -231 -128 -271 -128 -18 0 -33 2 -33 4 0 2 36 74 80 159
123 236 163 362 140 432 -21 63 -87 74 -161 27z m40 -169 c-21 -65 -169 -367
-189 -387 -17 -17 -32 46 -26 109 7 72 47 158 110 242 52 68 119 129 124 113
2 -5 -6 -40 -19 -77z m1116 1 c-15 -44 -63 -150 -108 -237 -72 -141 -83 -157
-94 -141 -17 24 -16 109 2 171 20 67 99 186 164 247 29 26 55 46 57 43 3 -3
-7 -40 -21 -83z m2020 24 c-27 -83 -72 -184 -138 -306 -56 -104 -62 -112 -75
-95 -18 24 -10 142 13 198 28 65 100 168 155 219 28 27 54 46 57 43 3 -3 -3
-30 -12 -59z m-852 -437 c20 -48 34 -235 19 -245 -16 -10 -68 40 -91 87 -27
55 -27 122 -1 165 27 44 54 42 73 -7z m-193 -123 c0 -63 90 -187 162 -224 l29
-15 -18 -30 c-24 -41 -87 -97 -118 -105 -83 -21 -143 56 -144 187 -1 71 16
133 49 180 25 35 40 37 40 7z"/>
<path d="M5103 2923 c-33 -6 -83 -60 -83 -89 0 -51 101 -56 140 -7 11 14 20
34 20 44 0 19 -34 60 -47 58 -5 -1 -18 -4 -30 -6z"/>
<path d="M16468 2922 c-32 -4 -88 -64 -88 -93 0 -25 44 -42 86 -35 94 18 96
141 2 128z"/>
</g>
</svg>
